<?xml version="1.0" standalone="no"?>
<!DOCTYPE svg PUBLIC "-//W3C//DTD SVG 20010904//EN"
 "http://www.w3.org/TR/2001/REC-SVG-20010904/DTD/svg10.dtd">
<svg version="1.0" xmlns="http://www.w3.org/2000/svg"
 width="271.000000pt" height="186.000000pt" viewBox="0 0 271.000000 186.000000"
 preserveAspectRatio="xMidYMid meet">

<g transform="translate(0.000000,186.000000) scale(0.100000,-0.100000)"
fill="#000000" stroke="none">
<path d="M1880 1777 c45 -85 70 -164 70 -225 l0 -44 -37 30 c-21 16 -63 42
-93 58 -48 25 -66 29 -140 29 -76 0 -93 -4 -151 -32 -36 -18 -92 -57 -124 -87
-59 -54 -59 -55 -25 -45 19 6 87 13 151 16 128 6 194 -4 269 -43 l45 -23 -71
-1 c-173 -1 -305 -83 -404 -249 -38 -66 -38 -72 3 -34 73 68 210 142 266 143
18 0 22 -4 15 -17 -4 -10 -18 -49 -32 -88 -35 -100 -28 -238 18 -380 38 -115
41 -113 60 34 24 185 70 307 150 394 46 50 113 97 124 86 3 -3 12 -32 21 -64
67 -260 33 -632 -97 -1044 l-33 -103 -150 1 -150 2 -91 89 -91 90 -86 0 -85 0
-47 65 -46 65 -152 0 -152 0 -57 62 c-56 63 -56 63 -77 44 -12 -11 -21 -23
-21 -29 0 -5 41 -54 91 -108 l91 -99 -86 0 -86 0 0 -34 c0 -30 3 -35 28 -38
l27 -3 -52 -55 c-49 -52 -54 -55 -92 -52 l-41 4 0 289 0 289 224 0 c179 0 226
3 235 14 14 17 -1 124 -26 189 -63 162 -215 281 -395 308 -239 37 -479 -112
-548 -340 -13 -41 -20 -88 -18 -117 l3 -49 228 -3 227 -2 0 -290 0 -290 -235
0 -235 0 0 -40 0 -40 1216 0 1215 0 -3 37 -3 38 -173 0 c-94 0 -172 1 -172 2
0 1 11 64 24 140 39 222 49 356 43 567 -6 196 -17 272 -62 413 -21 67 -21 72
-4 63 34 -19 120 -114 171 -189 43 -65 102 -180 159 -310 l15 -35 29 70 c21
51 29 91 33 155 4 78 2 92 -23 148 -40 88 -127 167 -255 230 -114 55 -113 60
15 68 132 9 269 -38 399 -136 35 -27 68 -51 75 -55 15 -9 -32 116 -61 163 -37
60 -110 132 -163 159 -43 23 -63 27 -135 27 -72 0 -94 -4 -145 -28 -32 -15
-74 -39 -91 -52 -18 -14 -34 -25 -36 -25 -2 0 -3 39 -3 88 -1 150 -53 231
-187 287 l-37 15 39 -73z m-1400 -842 l0 -205 -100 0 -100 0 0 29 c0 52 29
198 49 244 26 60 85 125 119 130 15 2 28 5 30 6 1 0 2 -91 2 -204z m129 176
c61 -44 120 -206 121 -328 l0 -53 -100 0 -100 0 0 200 0 200 26 0 c14 0 38 -9
53 -19z m-314 -63 c-30 -55 -53 -146 -62 -242 l-6 -76 -85 0 -85 0 7 43 c10
63 59 159 108 213 39 43 121 104 139 104 4 0 -3 -19 -16 -42z m456 16 c97 -61
181 -185 195 -288 l7 -46 -87 0 -86 0 0 58 c0 75 -23 181 -54 248 -14 30 -23
54 -20 54 2 0 23 -12 45 -26z m353 -759 l27 -35 -99 0 c-95 0 -99 1 -125 28
-15 15 -27 31 -27 35 0 4 44 7 99 7 l99 0 26 -35z m309 -162 l56 -58 -374 0
c-206 0 -375 2 -375 5 0 2 23 28 52 57 l52 53 266 0 266 0 57 -57z"/>
<path d="M926 1763 c-3 -3 -6 -21 -6 -40 0 -23 5 -33 15 -33 10 0 15 10 15 34
0 34 -11 52 -24 39z"/>
<path d="M796 1721 c-3 -5 4 -21 15 -36 28 -35 50 -18 25 19 -17 27 -31 33
-40 17z"/>
<path d="M1036 1701 c-12 -22 -13 -32 -4 -37 13 -8 51 33 45 49 -7 23 -27 17
-41 -12z"/>
<path d="M858 1629 c-43 -22 -78 -81 -78 -131 0 -159 228 -207 292 -61 59 134
-84 261 -214 192z"/>
<path d="M700 1631 c0 -12 40 -41 57 -41 19 0 16 21 -4 36 -21 16 -53 18 -53
5z"/>
<path d="M1127 1624 c-27 -15 -33 -25 -21 -37 8 -8 64 21 64 33 0 17 -15 18
-43 4z"/>
<path d="M670 1505 c0 -10 11 -15 35 -15 24 0 35 5 35 15 0 10 -11 15 -35 15
-24 0 -35 -5 -35 -15z"/>
<path d="M1127 1504 c-13 -13 5 -24 39 -24 24 0 34 5 34 15 0 10 -10 15 -33
15 -19 0 -37 -3 -40 -6z"/>
<path d="M718 1399 c-21 -12 -24 -39 -5 -39 17 0 57 29 57 41 0 12 -30 11 -52
-2z"/>
<path d="M1100 1395 c0 -21 48 -51 61 -38 7 7 2 17 -17 32 -31 25 -44 27 -44
6z"/>
<path d="M806 1319 c-19 -28 -21 -49 -3 -49 20 0 43 48 30 61 -8 8 -15 4 -27
-12z"/>
<path d="M1020 1317 c0 -7 7 -23 16 -36 23 -32 43 -12 24 24 -14 26 -40 34
-40 12z"/>
<path d="M914 1297 c-9 -25 0 -62 16 -62 10 0 15 10 15 34 0 36 -21 54 -31 28z"/>
</g>
</svg>
